<svg width="16" height="16" viewBox="0 0 16 16" fill="none" xmlns="http://www.w3.org/2000/svg">
<path d="M11.6666 12.6666H5.99994C5.13452 12.6664 4.28621 12.4256 3.54979 11.971C2.81338 11.5164 2.21789 10.8659 1.82986 10.0924C1.44183 9.31883 1.27654 8.45261 1.35247 7.59053C1.4284 6.72844 1.74256 5.90445 2.25984 5.21063C2.77712 4.51682 3.47714 3.98051 4.28168 3.66164C5.08622 3.34277 5.96357 3.2539 6.81571 3.40496C7.66785 3.55602 8.4612 3.94106 9.1071 4.51705C9.753 5.09304 10.226 5.8373 10.4733 6.66665H11.6666C12.4623 6.66665 13.2253 6.98272 13.7879 7.54533C14.3505 8.10794 14.6666 8.871 14.6666 9.66665C14.6666 10.4623 14.3505 11.2254 13.7879 11.788C13.2253 12.3506 12.4623 12.6666 11.6666 12.6666Z" stroke="white" stroke-width="1.33333" stroke-linecap="round" stroke-linejoin="round"/>
</svg>
